<svg xmlns="http://www.w3.org/2000/svg" width="387" height="546" version="1" viewBox="0 0 363 512"><path fill="#264de4" d="M362 101l-33 370-148 41-148-41L0 101z"/><path fill="#2965f1" d="M301 447l28-316H181v350z"/><path fill="#ebebeb" d="M75 268l4 46h102v-46zM181 176H67l4 46h110zM181 433v-47l-51-13-3-37H81l7 72 93 25z"/><path d="M85 0h55v23h-32v23h32v23H85zM151 0h55v20h-32v4h32v46h-55V49h32v-4h-32zM217 0h55v20h-32v4h32v46h-55V49h32v-4h-32z"/><path fill="#fff" d="M237 314l-6 59-50 13v47l93-25 1-8 10-120 1-12 9-92H181v46h64l-4 46h-60v46z"/></svg>