<svg xmlns="http://www.w3.org/2000/svg" version="1" viewBox="0 0 548 411"><path fill="#CD6799" d="M471 236c-19 0-35 5-49 12-5-11-10-20-11-26-1-8-3-13-1-22 1-9 6-22 6-23s-1-6-12-6-21 2-22 5l-4 16c-2 10-22 46-34 65-3-7-7-14-7-19-1-8-3-12-1-22 1-9 6-22 6-23s-1-6-12-6-21 2-22 5l-4 17a3520 3520 0 0 1-45 100h-1l-3 6-3 6c-1 0-2-8 0-17 4-21 13-53 13-54s2-7-6-10c-8-2-11 2-11 2l-2 2s9-36-16-36c-16 0-38 17-49 33l-36 20-18 10-1-2c-31-33-87-56-85-100 1-15 6-57 109-108 84-42 151-30 163-5 16 36-36 104-123 114-34 4-51-9-55-14-5-5-6-5-7-4-3 1-1 6 0 8 2 7 13 19 31 25 16 5 55 8 102-10 53-21 94-77 82-125s-92-64-168-37C130 29 81 54 46 87 4 126-2 160 0 174c10 50 80 83 108 108l-4 2c-14 7-67 34-80 64-15 33 2 57 14 60 35 10 72-8 92-37a92 92 0 0 0 7-86l11-7 20-11c-3 9-6 20-7 36-1 19 6 44 17 53 4 4 9 5 13 5 12 0 17-10 23-22 7-14 13-31 13-31s-8 45 14 45c8 0 16-10 20-16v1l1-1 1-3 21-39c14-27 27-61 27-61l6 22c2 8 7 17 11 25l-5 7-9 11c-11 13-24 28-25 32-2 5-2 9 2 12 3 2 8 3 13 2 10 0 17-3 21-4l17-9c11-8 17-20 16-34 0-9-3-17-6-25l3-4c17-25 30-52 30-52l5 22c2 7 6 15 10 22a95 95 0 0 0-29 38c-6 18-2 27 8 28 4 1 10-1 14-2 6-2 13-5 19-10 11-8 21-19 20-34 0-7-2-13-4-20 13-5 31-9 53-6 47 6 57 35 55 48-2 12-12 19-15 21s-5 3-4 5c0 2 2 2 5 1 3 0 25-10 25-33 2-29-26-61-76-61zM104 360c-16 17-38 24-47 18-10-6-6-31 13-49 12-12 27-22 37-28l10-6 1-1 2-1c8 26 1 49-16 67zm115-78c-5 13-17 47-24 45-6-1-10-27-1-53 4-13 13-28 19-34 8-10 18-13 20-9 3 5-10 42-14 51zm95 45c-2 1-4 2-5 1l1-2 16-18 10-12v1c0 16-15 26-22 30zm73-17c-1-1-1-5 5-17 2-5 7-13 16-21l2 9c-1 19-14 26-23 29z"/></svg>