<svg xmlns="http://www.w3.org/2000/svg" version="1" viewBox="0 0 400 400"><path fill="#E535AB" d="M58 302l-15-8L203 17l15 8z"/><path fill="#E535AB" d="M40 272h320v17H40z"/><path fill="#E535AB" d="M206 374L46 282l8-15 161 92zM346 133L185 41l9-15 160 92z"/><path fill="#E535AB" d="M55 133l-9-15 160-92 9 14z"/><path fill="#E535AB" d="M343 302L183 25l14-9 160 278zM53 108h17v185H53z"/><path fill="#E535AB" d="M331 108h17v185h-17z"/><path fill="#E535AB" d="M204 367l-8-13 140-80 7 13z"/><path fill="#E535AB" d="M370 298a35 35 0 1 1-61-35 35 35 0 0 1 61 35M91 137a35 35 0 1 1-61-35 35 35 0 0 1 61 35M31 298a35 35 0 1 1 60-35 35 35 0 0 1-60 35M309 137a35 35 0 1 1 61-35 35 35 0 0 1-61 35M200 396a35 35 0 1 1 0-70 35 35 0 0 1 0 70M200 74a35 35 0 1 1 0-70 35 35 0 0 1 0 70"/></svg>